<svg width="60" height="23" viewBox="0 0 60 23" fill="none" xmlns="http://www.w3.org/2000/svg">
<path d="M57.4229 8.54365C58.0558 8.06904 58.6253 7.49951 59.0683 6.83506C58.4987 7.08818 57.8343 7.27803 57.1698 7.34131C57.8659 6.92998 58.3722 6.29717 58.6253 5.50615C57.9925 5.88584 57.2647 6.17061 56.537 6.32881C55.9042 5.66436 55.0499 5.28467 54.1007 5.28467C52.2655 5.28467 50.7784 6.77178 50.7784 8.60693C50.7784 8.86006 50.8101 9.11318 50.8733 9.36631C48.1206 9.20811 45.6526 7.8792 44.0073 5.88584C43.7226 6.36045 43.5644 6.92998 43.5644 7.56279C43.5644 8.70186 44.1339 9.71436 45.0515 10.3155C44.5136 10.2839 43.9757 10.1573 43.5327 9.9042V9.93584C43.5327 11.5495 44.6718 12.8784 46.1905 13.1948C45.9374 13.2581 45.621 13.3214 45.3362 13.3214C45.1147 13.3214 44.9249 13.2897 44.7034 13.2581C45.1147 14.587 46.3487 15.5362 47.8042 15.5679C46.6651 16.4538 45.2413 16.9917 43.6909 16.9917C43.4062 16.9917 43.153 16.9601 42.8999 16.9284C44.3554 17.8776 46.0956 18.4155 47.994 18.4155C54.1007 18.4155 57.4229 13.3847 57.4229 8.98662C57.4229 8.82842 57.4229 8.70186 57.4229 8.54365Z" fill="#111928"/>
</svg>
