<svg width="23" height="23" viewBox="0 0 23 23" fill="none" xmlns="http://www.w3.org/2000/svg">
<path d="M11.1469 3.48438C6.81216 3.48438 3.30005 7.02813 3.30005 11.3313C3.30005 15.666 6.81216 19.1781 11.1469 19.1781C15.45 19.1781 18.9938 15.666 18.9938 11.3313C18.9938 7.02813 15.45 3.48438 11.1469 3.48438ZM16.3043 7.12305C17.2536 8.26211 17.8231 9.71758 17.8231 11.2996C17.6016 11.2363 15.3868 10.7934 13.1719 11.0781C12.9821 10.6352 12.8239 10.2555 12.5708 9.74922C15.0704 8.73672 16.1778 7.31289 16.3043 7.12305ZM15.5766 6.33203C15.45 6.52188 14.4375 7.88242 12.0645 8.76836C10.9571 6.74336 9.75474 5.09805 9.56489 4.84492C11.6848 4.33867 13.9313 4.87656 15.5766 6.33203ZM8.26763 5.28789C8.45747 5.54102 9.65981 7.18633 10.7672 9.17969C7.63481 10.0023 4.88208 10.0023 4.56567 9.9707C5.00864 7.91406 6.40083 6.17383 8.26763 5.28789ZM4.43911 11.3629C4.43911 11.2996 4.43911 11.2363 4.43911 11.1414C4.72388 11.173 7.98286 11.2047 11.3051 10.1922C11.5266 10.5719 11.6848 10.9516 11.8747 11.3313C9.43833 12.0273 7.22349 13.9891 6.14771 15.8242C5.07192 14.6535 4.43911 13.0715 4.43911 11.3629ZM7.002 16.6469C7.72974 15.223 9.62817 13.3563 12.3176 12.4387C13.2668 14.875 13.6465 16.9316 13.7415 17.5328C11.5899 18.4504 8.99536 18.1973 7.002 16.6469ZM14.8805 16.9C14.8172 16.5203 14.4375 14.5586 13.5833 12.1223C15.6715 11.8059 17.5067 12.3438 17.7598 12.407C17.4434 14.2738 16.3676 15.8875 14.8805 16.9Z" fill="#111928"/>
</svg>
