<svg width="23" height="23" viewBox="0 0 23 23" fill="none" xmlns="http://www.w3.org/2000/svg">
<path d="M11.1472 3.46301C6.8124 3.46301 3.30029 7.00676 3.30029 11.3099C3.30029 15.6447 6.8124 19.1568 11.1472 19.1568C15.4503 19.1568 18.994 15.6447 18.994 11.3099C18.994 7.00676 15.4503 3.46301 11.1472 3.46301ZM16.3046 7.10168C17.2538 8.24075 17.8233 9.69622 17.8233 11.2782C17.6019 11.215 15.387 10.772 13.1722 11.0568C12.9823 10.6138 12.8241 10.2341 12.571 9.72786C15.0706 8.71536 16.178 7.29153 16.3046 7.10168ZM15.5769 6.31067C15.4503 6.50051 14.4378 7.86106 12.0647 8.747C10.9573 6.722 9.75498 5.07668 9.56514 4.82356C11.6851 4.31731 13.9315 4.8552 15.5769 6.31067ZM8.26787 5.26653C8.45772 5.51965 9.66006 7.16497 10.7675 9.15833C7.63506 9.98098 4.88232 9.98098 4.56592 9.94934C5.00889 7.8927 6.40107 6.15247 8.26787 5.26653ZM4.43936 11.3415C4.43936 11.2782 4.43936 11.215 4.43936 11.12C4.72412 11.1517 7.98311 11.1833 11.3054 10.1708C11.5269 10.5505 11.6851 10.9302 11.8749 11.3099C9.43857 12.006 7.22373 13.9677 6.14795 15.8029C5.07217 14.6322 4.43936 13.0501 4.43936 11.3415ZM7.00225 16.6255C7.72998 15.2017 9.62842 13.3349 12.3179 12.4173C13.2671 14.8536 13.6468 16.9103 13.7417 17.5115C11.5901 18.429 8.99561 18.1759 7.00225 16.6255ZM14.8808 16.8786C14.8175 16.499 14.4378 14.5372 13.5835 12.1009C15.6718 11.7845 17.5069 12.3224 17.7601 12.3857C17.4437 14.2525 16.3679 15.8661 14.8808 16.8786Z" fill="#111928"/>
</svg>
