<svg width="60" height="23" viewBox="0 0 60 23" fill="none" xmlns="http://www.w3.org/2000/svg">
<path d="M57.4234 8.52217C58.0563 8.04756 58.6258 7.47803 59.0688 6.81357C58.4992 7.0667 57.8348 7.25654 57.1703 7.31982C57.8664 6.9085 58.3727 6.27568 58.6258 5.48467C57.993 5.86436 57.2652 6.14912 56.5375 6.30732C55.9047 5.64287 55.0504 5.26318 54.1012 5.26318C52.266 5.26318 50.7789 6.75029 50.7789 8.58545C50.7789 8.83857 50.8105 9.0917 50.8738 9.34482C48.1211 9.18662 45.6531 7.85771 44.0078 5.86436C43.723 6.33896 43.5648 6.9085 43.5648 7.54131C43.5648 8.68037 44.1344 9.69287 45.052 10.294C44.5141 10.2624 43.9762 10.1358 43.5332 9.88271V9.91436C43.5332 11.528 44.6723 12.8569 46.191 13.1733C45.9379 13.2366 45.6215 13.2999 45.3367 13.2999C45.1152 13.2999 44.9254 13.2683 44.7039 13.2366C45.1152 14.5655 46.3492 15.5147 47.8047 15.5464C46.6656 16.4323 45.2418 16.9702 43.6914 16.9702C43.4066 16.9702 43.1535 16.9386 42.9004 16.9069C44.3559 17.8562 46.0961 18.394 47.9945 18.394C54.1012 18.394 57.4234 13.3632 57.4234 8.96514C57.4234 8.80693 57.4234 8.68037 57.4234 8.52217Z" fill="#111928"/>
</svg>
