<?xml version="1.0" encoding="utf-8"?>
<!-- Generator: Adobe Illustrator 26.0.1, SVG Export Plug-In . SVG Version: 6.00 Build 0)  -->
<svg version="1.1" id="Слой_1" xmlns="http://www.w3.org/2000/svg" xmlns:xlink="http://www.w3.org/1999/xlink" x="0px" y="0px"
	 viewBox="0 0 19.9 22" style="enable-background:new 0 0 19.9 22;" xml:space="preserve">
<style type="text/css">
	.st0{fill:#111928;}
</style>
<path class="st0" d="M17.3,8c0.6-0.5,1.2-1,1.6-1.7c-0.6,0.3-1.2,0.4-1.9,0.5c0.7-0.4,1.2-1,1.5-1.8c-0.6,0.4-1.4,0.7-2.1,0.8
	c-0.6-0.7-1.5-1-2.4-1c-1.8,0-3.3,1.5-3.3,3.3c0,0.3,0,0.5,0.1,0.8C8,8.6,5.5,7.3,3.9,5.3C3.6,5.8,3.5,6.3,3.5,7
	c0,1.1,0.6,2.2,1.5,2.8c-0.5,0-1.1-0.2-1.5-0.4v0c0,1.6,1.1,2.9,2.7,3.3c-0.3,0.1-0.6,0.1-0.9,0.1c-0.2,0-0.4,0-0.6-0.1
	C5,14,6.2,15,7.7,15c-1.1,0.9-2.6,1.4-4.1,1.4c-0.3,0-0.5,0-0.8-0.1c1.5,0.9,3.2,1.5,5.1,1.5c6.1,0,9.4-5,9.4-9.4
	C17.3,8.2,17.3,8.1,17.3,8z"/>
</svg>
