<svg width="23" height="22" viewBox="0 0 23 22" fill="none" xmlns="http://www.w3.org/2000/svg">
<path d="M11.1469 2.89966C6.81216 2.89966 3.30005 6.44341 3.30005 10.7465C3.30005 15.0813 6.81216 18.5934 11.1469 18.5934C15.45 18.5934 18.9938 15.0813 18.9938 10.7465C18.9938 6.44341 15.45 2.89966 11.1469 2.89966ZM16.3043 6.53833C17.2536 7.67739 17.8231 9.13286 17.8231 10.7149C17.6016 10.6516 15.3868 10.2086 13.1719 10.4934C12.9821 10.0504 12.8239 9.67075 12.5708 9.1645C15.0704 8.152 16.1778 6.72817 16.3043 6.53833ZM15.5766 5.74731C15.45 5.93716 14.4375 7.29771 12.0645 8.18364C10.9571 6.15864 9.75474 4.51333 9.56489 4.26021C11.6848 3.75396 13.9313 4.29185 15.5766 5.74731ZM8.26763 4.70317C8.45747 4.9563 9.65981 6.60161 10.7672 8.59497C7.63481 9.41763 4.88208 9.41763 4.56567 9.38599C5.00864 7.32935 6.40083 5.58911 8.26763 4.70317ZM4.43911 10.7782C4.43911 10.7149 4.43911 10.6516 4.43911 10.5567C4.72388 10.5883 7.98286 10.62 11.3051 9.60747C11.5266 9.98716 11.6848 10.3668 11.8747 10.7465C9.43833 11.4426 7.22349 13.4043 6.14771 15.2395C5.07192 14.0688 4.43911 12.4868 4.43911 10.7782ZM7.002 16.0622C7.72974 14.6383 9.62817 12.7715 12.3176 11.854C13.2668 14.2903 13.6465 16.3469 13.7415 16.9481C11.5899 17.8657 8.99536 17.6125 7.002 16.0622ZM14.8805 16.3153C14.8172 15.9356 14.4375 13.9739 13.5833 11.5375C15.6715 11.2211 17.5067 11.759 17.7598 11.8223C17.4434 13.6891 16.3676 15.3028 14.8805 16.3153Z" fill="#111928"/>
</svg>
